<svg height="64" viewBox="0 0 3.0361472 3.0374128" width="64" xmlns="http://www.w3.org/2000/svg"><g stroke-width=".05809" transform="matrix(4.3813966 0 0 4.3813966 -7.02337 3.037413)"><path d="m1.8569775-.1172851-.1166457-.0001139v-.1394195c0-.029859.01156-.045311.037062-.048912h.079584c.056754 0 .093468.035784.093526.0937-.0000579.059485-.035842.094688-.093526.094688zm-.1166457-.376194v-.036713c0-.032124.013593-.047402.043394-.049377h.059717c.051178 0 .081849.030614.081849.081908 0 .039037-.021029.084638-.079991.084638h-.104969zm.2655896.1391848-.021087-.01185.018415-.015743c.021435-.018415.057277-.059833.057277-.1312844 0-.1094425-.084812-.1800805-.2161546-.1800805h-.166952a.073194.073194 0 0 0 -.070522.072265v.6209872h.2404364c.1459814 0 .2402042-.079468.2402042-.2025615 0-.066281-.030439-.1229194-.081617-.1517323" fill="#273b7d"/><path d="m2.1251673-.0835926c0-.046298.037294-.083708.083244-.083708a.0836503.0836503 0 0 1 0 .1673006c-.045891 0-.083244-.037468-.083244-.08365" fill="#499fdd"/></g></svg>